<svg xmlns="http://www.w3.org/2000/svg" xmlns:xlink="http://www.w3.org/1999/xlink" stroke-miterlimit="10" stroke-linecap="square" stroke="none" fill="none" viewBox="5.399325084364454 140.4 309.92125984251965 300.24" version="1.1" style="max-height: 500px" width="309.92125984251965" height="300.24"><clipPath id="p.0"><path clip-rule="nonzero" d="m0 0l960.0 0l0 540.0l-960.0 0l0 -540.0z"/></clipPath><g clip-path="url(#p.0)"><path fill-rule="evenodd" d="m0 0l960.0 0l0 540.0l-960.0 0z" fill="#ffffff"/><path fill-rule="evenodd" d="m8.0 191.75952l0 0c0 -27.420547 22.228743 -49.649292 49.64929 -49.649292l204.85889 0l0 0c13.167816 0 25.796326 5.230896 35.10736 14.541946c9.311035 9.31105 14.541931 21.939545 14.541931 35.107346l0 198.59119c0 27.420563 -22.22873 49.649292 -49.649292 49.649292l-204.85889 0c-27.420546 0 -49.64929 -22.22873 -49.64929 -49.649292z" fill="#009682"/><path fill-rule="evenodd" d="m8.0 191.75952l0 0c0 -27.420547 22.228743 -49.649292 49.64929 -49.649292l204.85889 0l0 0c13.167816 0 25.796326 5.230896 35.10736 14.541946c9.311035 9.31105 14.541931 21.939545 14.541931 35.107346l0 198.59119c0 27.420563 -22.22873 49.649292 -49.649292 49.649292l-204.85889 0c-27.420546 0 -49.64929 -22.22873 -49.64929 -49.649292z" stroke-linecap="butt" stroke-linejoin="round" stroke-width="1.3438320209973753" stroke="#009682"/><path fill-rule="evenodd" d="m204.90547 193.42845l-0.0554657 3.6107483c-0.055480957 4.511734 -0.91581726 6.937317 -5.1608887 14.889496l-3.2454987 6.120346l1.9142456 1.0148773c1.0539093 0.5362091 9.100311 4.7096252 17.894989 9.250122c8.767502 4.5681 16.091675 8.290482 16.258072 8.290482c0.16641235 0 0.47206116 -1.0148773 0.6384735 -2.2276764c1.0539093 -7.811798 3.5228424 -12.916107 8.739197 -18.104416l2.4972382 -2.454361l-19.754898 -10.208618l-19.725464 -10.181z" fill="#ffffff"/><path fill-rule="evenodd" d="m260.6541 227.75252c4.623169 0 9.20105 3.59581 9.20105 9.07753c0 3.638382 -2.2481995 7.022461 -5.6329346 8.46077c-1.1625671 0.4947815 -2.3093262 0.7180176 -3.40625 0.7180176c-6.9177704 0 -11.895264 -8.8980255 -6.7479706 -15.12883c1.7885895 -2.164383 4.1941376 -3.1274872 6.5861053 -3.1274872zm0.2218628 -11.963364c-10.863998 0 -20.597122 8.809418 -20.597122 21.013275c0 9.164978 5.077118 16.55449 13.651047 19.882202c1.9199066 0.7571106 3.030426 0.9918518 5.608032 0.9918518c0.58865356 0 1.2531433 -0.012664795 2.0217896 -0.033355713c4.354889 -0.11276245 5.1880493 -0.2819214 7.989807 -1.6362305c15.676239 -7.5011444 16.009033 -30.25882 0.61016846 -37.986633c-3.0553284 -1.5280609 -6.214813 -2.2311096 -9.283722 -2.2311096z" fill="#ffffff"/><path fill-rule="evenodd" d="m184.11363 182.43393c-3.446991 0 -6.7581635 1.2312012 -9.255402 3.578537c-1.6651917 1.5223236 -3.384735 4.3989563 -8.129044 13.451172c-3.3292694 6.345871 -6.159317 12.295914 -6.2985535 13.226791c-0.30451965 2.1712952 0.80485535 4.3989563 2.747406 5.4149933c0.83203125 0.422287 1.5814362 0.81695557 1.6640778 0.90211487c0.08377075 0.083999634 -0.52752686 1.4659271 -1.3595581 3.0457764c-1.2757874 2.425583 -1.8587799 3.07341 -3.5783234 3.8075256c-1.1105042 0.4786682 -2.6081696 1.4947052 -3.3021088 2.2552948c-1.2486115 1.3819275 -1.2757874 1.3819275 -8.323746 1.7202301c-6.2702637 0.31066895 -7.1849365 0.4510498 -8.100739 1.3255463c-1.3595581 1.2691803 -8.545624 19.064072 -8.545624 21.122604c0 2.2690887 2.019516 3.8144226 4.002823 3.8144226c0.97579956 0 1.9425507 -0.3739624 2.655716 -1.219696c0.5546875 -0.64897156 2.330841 -4.4553375 3.9394379 -8.432007c1.609726 -4.0042877 3.1356964 -7.529892 3.3858795 -7.8394165c0.3045044 -0.39582825 1.8304749 -0.59259033 4.577881 -0.59259033c3.4956818 0 4.161316 0.11276245 4.4103546 0.81811523c1.1659851 3.4404602 4.9661865 5.9500427 8.98938 5.977661l2.6081848 0l2.1644135 3.6671295l2.1632996 3.6660004l-4.577896 6.683014c-2.5243988 3.665985 -4.85524 7.163971 -5.1597443 7.7841797c-0.77656555 1.4659424 -0.22187805 3.6372375 1.2203064 4.7660217c0.7595978 0.6052551 1.6391754 0.91015625 2.5051727 0.91015625c0.74713135 0 1.4852142 -0.22781372 2.128189 -0.68463135c0.55470276 -0.39468384 3.662094 -4.5692444 6.908737 -9.2789c4.411484 -6.4298553 5.8819733 -8.910675 5.8819733 -10.010696c0 -0.95965576 -1.13768 -3.3276978 -3.4956818 -7.2756042c-3.3021088 -5.5001373 -3.4685059 -5.894806 -3.0519257 -7.4735107c0.2490387 -0.9032593 0.33280945 -2.7638702 0.16641235 -4.145813c-0.27734375 -2.2840576 -0.13925171 -2.7914886 1.3867188 -5.5277557c0.915802 -1.6638489 1.887085 -3.0170135 2.1915894 -3.0170135c0.3056488 0 1.0550537 0.30952454 1.6923828 0.67658997c0.7776947 0.45335388 1.7489624 0.6742859 2.7066498 0.6742859c1.1252289 0 2.2312164 -0.30607605 2.9817505 -0.89982605c1.109375 -0.90211487 11.0971985 -19.233215 12.900513 -23.688553c1.0267334 -2.510727 1.0550385 -7.4458923 0.0554657 -10.40654c-1.0822144 -3.2436981 -4.7160034 -6.853302 -8.018112 -7.980942c-1.5961456 -0.54771423 -3.2319183 -0.81466675 -4.838257 -0.81466675z" fill="#ffffff"/><path fill-rule="evenodd" d="m237.94916 253.24416l-9.932343 19.09169c-5.4665375 10.519287 -9.933487 19.233215 -9.933487 19.402374c0 0.024139404 0.036224365 0.0368042 0.104141235 0.0368042c0.31922913 0 1.3448486 -0.2658081 2.559494 -0.685791c2.3263092 -0.82733154 5.2955933 -1.2553711 8.133575 -1.2553711c1.8010406 0 3.5488892 0.17260742 5.0454254 0.5223999c3.0236206 0.7329712 7.4634094 2.7351074 9.377655 4.2585754c0.43922424 0.34750366 0.9429779 0.60754395 1.2089996 0.60754395c0.036224365 0 0.06791687 -0.0057373047 0.09509277 -0.014953613c0.35998535 -0.11276245 15.536972 -28.934387 15.564163 -29.555756c0 -0.16912842 -0.7765808 -0.4510498 -1.7195435 -0.6201782c-7.796234 -1.2691956 -12.014145 -3.3276978 -16.896545 -8.177734l-3.6066284 -3.609604z" fill="#ffffff"/><path fill-rule="evenodd" d="m228.62584 297.09567c-0.045288086 0 -0.09169006 0 -0.1381073 0.0011291504c-7.8517 0.027618408 -13.567276 4.060669 -16.674667 11.730957l-1.1093903 2.736267l0 33.022675l0 33.023834l-9.155777 0c-9.959518 0 -12.068481 0.33828735 -13.483505 2.2000427c-0.915802 1.184021 -0.9429779 1.8042297 -0.9429779 18.020447c0 16.441711 0 16.807617 0.9701538 18.076782c0.55581665 0.7053528 1.4433136 1.438324 1.9708405 1.6638489c0.5263977 0.2255249 17.894989 0.4234619 38.56456 0.4234619c5.9963226 0.008056641 11.082489 0.016113281 15.401138 0.016113281c24.970123 0 24.263733 -0.27731323 25.494263 -2.4417114c0.6373291 -1.1564026 1.1365356 -28.878021 0.58184814 -32.685547c-0.16641235 -1.269165 -0.80374146 -2.622345 -1.6086121 -3.5244446l-1.3040771 -1.523468l-10.209686 -0.14038086l-10.182541 -0.14154053l-0.13923645 -32.76953c-0.110946655 -30.625854 -0.193573 -32.882294 -0.9984436 -35.082367c-2.8957062 -7.8773804 -9.274643 -12.606567 -17.035782 -12.606567z" fill="#ffffff"/><path fill-rule="evenodd" d="m73.86838 177.50221c-5.793686 0 -11.493408 2.5544586 -15.315113 7.466614c-1.026741 1.2967834 -1.8304787 2.5659637 -1.8304787 2.7914886c0 0.25428772 5.825382 0.42344666 13.871788 0.42344666l13.871788 0l0 -1.5510864c0 -1.7766113 0.69392395 -2.6787262 2.0806503 -2.6787262c1.6923752 0 1.6369019 -0.5362091 -0.1381073 -1.9745331c-3.7175522 -3.013565 -8.156212 -4.4772034 -12.540527 -4.4772034z" fill="#000000"/><path fill-rule="evenodd" d="m69.48519 195.71365c-13.12352 0 -15.010597 0.083999634 -15.259644 0.7329712c-0.5275192 1.3819275 0.5818596 6.853302 1.9697189 9.870316c2.468937 5.358612 8.07357 9.899109 13.538971 10.997986c1.4206848 0.27729797 2.8108063 0.41653442 4.1737595 0.41653442c3.218338 0 6.2838516 -0.7767029 9.227104 -2.3623047c4.771469 -2.5383453 8.601097 -7.4171295 10.016121 -12.718201l0.47092438 -1.7766113l-1.9414215 0c-1.4987946 0 -2.2481918 -0.25430298 -3.0519257 -1.1564026c-0.61129 -0.64897156 -1.5259628 -1.1840363 -2.081787 -1.1840363c-1.1920166 0 -2.0806503 -0.84687805 -2.0806503 -1.9745178c0 -0.7893524 -0.85920715 -0.84573364 -14.981171 -0.84573364z" fill="#000000"/><path fill-rule="evenodd" d="m136.82799 218.32405c-1.4308777 0 -2.8368378 0.3336792 -4.029999 1.0217743c-1.1659698 0.67658997 -5.8265076 5.6117554 -12.236008 12.972504l-10.376106 11.90123l-6.742317 -7.0224457c-3.6892548 -3.8915253 -7.2970047 -7.7830505 -7.962639 -8.657547c-0.6927948 -0.90211487 -2.357994 -2.2276611 -3.7175522 -2.9893951l-2.4417725 -1.4095612l-30.990204 0l-2.468937 1.4095612c-2.9138222 1.6350708 -4.439789 3.3276978 -6.0483894 6.824539l-1.1931496 2.5947266l0 87.423416c0 84.40637 0.028301239 87.47977 0.8603363 89.05963c1.6086006 3.1021729 4.0503693 5.160675 7.241535 6.147949c0.9022217 0.2784729 1.8372726 0.41192627 2.7757187 0.41192627c3.9915047 0 8.038483 -2.4083252 9.902916 -6.221588l1.1931534 -2.39682l0 -44.33249l0 -44.33246l6.4638367 0l0 43.40158c0 47.687805 -0.08263397 46.24948 2.802887 49.803864c2.2198944 2.7351074 4.6888275 3.835144 8.572792 3.862732c2.8300552 0 3.551155 -0.16912842 5.5208664 -1.4095459c2.8583527 -1.8053589 4.688835 -4.4841003 5.298996 -7.6990356c0.5275192 -2.933014 0.61129 -36.604675 0.16753387 -82.404236l-0.30564117 -31.358826l-2.302536 -0.7053528c-2.6364746 -0.76174927 -6.076683 -3.045807 -7.6852875 -5.0766907c-0.6101608 -0.76174927 -3.329277 -6.8245544 -6.0483856 -13.451172c-5.4269104 -13.31427 -6.4672394 -15.927399 -6.2612076 -15.927399c0.026031494 0 0.07131195 0.040283203 0.12904358 0.10586548c0.2501831 0.25430298 3.940567 5.4425964 8.212814 11.506561c10.0987625 14.38205 10.459877 14.833099 12.846176 15.763977c0.92938995 0.35211182 1.7750092 0.5293274 4.633362 0.5293274c2.8572235 0 7.7260437 -0.17721558 16.701836 -0.5293274c21.27974 -0.84573364 21.39067 -0.84573364 23.99884 -4.0042725c1.1093903 -1.3543091 2.1361237 -4.0330505 2.1361237 -5.640503c0 -1.6914673 -1.0539093 -4.3713684 -2.3308258 -5.8660583c-1.9097137 -2.1862488 -3.0326843 -2.877777 -8.755051 -2.877777c-2.1734772 0 -5.01033 0.100097656 -8.807121 0.25543213c-6.71402 0.2819214 -14.011024 0.5074463 -16.174316 0.5074463l-3.940567 0l-5.5208664 -7.8681946c-8.024895 -11.381134 -9.786324 -13.920639 -9.502182 -13.920639c0.044151306 0 0.13697052 0.06098938 0.26376343 0.15879822c0.49921417 0.39466858 4.605057 3.8351288 9.100311 7.6426544l8.184517 6.9373016l3.1345596 -0.056396484c1.7478409 -0.028747559 4.217911 -0.16912842 5.5208664 -0.33828735c2.2198944 -0.31066895 2.5255432 -0.5074158 5.078247 -3.5256042c2.6908188 -3.158554 2.717987 -3.2149353 2.8017578 -6.3447113c0.0554657 -2.8202667 0.4992218 -4.174591 4.3005447 -13.452332c2.3308258 -5.640503 4.771469 -10.970352 5.4099274 -11.844849c1.5259705 -2.0297546 5.327286 -3.9191284 7.8788605 -3.9191284c2.2753754 0 2.581009 -0.7053528 0.94410706 -2.2564392c-1.6482239 -1.5717926 -3.9733887 -2.403717 -6.2351685 -2.403717z" fill="#000000"/><path fill-rule="evenodd" d="m94.2323 183.95395c-3.3847427 0 -3.6337814 0.083999634 -4.216774 1.184021c-0.4437561 0.84573364 -1.026741 1.184021 -1.9425507 1.184021c-1.2474823 0 -1.3029556 0.11276245 -1.3029556 2.114914l0 2.1160583l-31.43509 0l0 1.4095459l0 1.4095612l31.43509 0l0 1.4107056c0 1.1564026 0.19358063 1.4095459 1.0810852 1.4095459c0.5829849 0 1.5542603 0.5362091 2.164421 1.1564178c0.9712753 1.072403 1.4421921 1.1851654 4.466957 1.1851654l3.3847427 0l0 -7.2767487l0 -7.3032074z" fill="#ffffff"/><path fill-rule="evenodd" d="m312.0 112.0l970.2677 0l0 428.0315l-970.2677 0z" fill-opacity="0.0" fill="#000000"/><path fill-rule="nonzero" d="m362.67188 432.0q-7.34375 0 -12.34375 -5.0q-5.0 -5.0 -5.0 -12.328125l0 -225.67188q0 -7.65625 5.0 -12.484375q5.0 -4.84375 12.34375 -4.84375q7.65625 0 12.484375 4.84375q4.84375 4.828125 4.84375 12.484375l0 225.67188q0 7.328125 -4.84375 12.328125q-4.828125 5.0 -12.484375 5.0zm101.331726 0q-7.34375 0 -12.34375 -5.0q-5.0 -5.0 -5.0 -12.328125l0 -225.67188q0 -7.65625 5.0 -12.484375q5.0 -4.84375 12.34375 -4.84375l60.0 0q25.0 0 44.328125 10.5q19.328125 10.5 30.15625 28.84375q10.84375 18.328125 10.84375 42.65625q0 22.65625 -10.84375 40.328125q-10.828125 17.671875 -30.15625 27.671875q-19.328125 10.0 -44.328125 10.0l-42.671875 0l0 83.0q0 7.328125 -4.84375 12.328125q-4.828125 5.0 -12.484375 5.0zm138.32812 0q-4.671875 0 -8.515625 -2.0q-3.828125 -2.0 -6.484375 -6.328125l-60.0 -96.671875l33.671875 -9.671875l54.65625 88.0q6.0 9.671875 1.65625 18.171875q-4.328125 8.5 -14.984375 8.5zm-121.0 -132.32812l42.671875 0q15.328125 0 26.984375 -5.828125q11.671875 -5.84375 18.34375 -16.34375q6.671875 -10.5 6.671875 -23.828125q0 -14.671875 -6.671875 -26.0q-6.671875 -11.328125 -18.34375 -17.65625q-11.65625 -6.34375 -26.984375 -6.34375l-42.671875 0l0 96.0zm193.33514 132.32812q-7.34375 0 -12.34375 -5.0q-5.0 -5.0 -5.0 -12.328125l0 -225.67188q0 -7.65625 5.0 -12.484375q5.0 -4.84375 12.34375 -4.84375q7.65625 0 12.484375 4.84375q4.84375 4.828125 4.84375 12.484375l0 225.67188q0 7.328125 -4.84375 12.328125q-4.828125 5.0 -12.484375 5.0zm166.65985 3.328125q-21.328125 0 -40.671875 -6.65625q-19.328125 -6.671875 -33.671875 -18.671875q-14.328125 -12.0 -20.984375 -27.671875q-3.34375 -7.0 0.15625 -13.0q3.5 -6.0 11.84375 -7.65625q6.0 -1.34375 11.828125 1.828125q5.828125 3.171875 8.828125 9.5q4.0 8.328125 13.171875 15.328125q9.171875 7.0 22.171875 11.34375q13.0 4.328125 27.328125 4.328125q16.0 0 29.5 -5.0q13.5 -5.0 21.828125 -14.5q8.328125 -9.5 8.328125 -23.5q0 -17.671875 -13.828125 -31.671875q-13.828125 -14.0 -45.5 -17.328125q-41.328125 -4.0 -65.0 -24.328125q-23.65625 -20.328125 -23.65625 -50.328125q0 -22.0 12.328125 -37.328125q12.328125 -15.34375 33.5 -23.34375q21.171875 -8.0 47.171875 -8.0q20.328125 0 35.484375 5.671875q15.171875 5.65625 26.5 15.65625q11.34375 10.0 19.671875 23.671875q4.671875 7.328125 3.828125 13.828125q-0.828125 6.5 -6.5 10.171875q-6.328125 4.0 -13.671875 1.671875q-7.328125 -2.34375 -10.984375 -8.671875q-5.34375 -9.671875 -13.015625 -16.328125q-7.65625 -6.671875 -17.984375 -10.5q-10.328125 -3.84375 -24.328125 -3.84375q-24.671875 -0.328125 -41.34375 9.171875q-16.65625 9.5 -16.65625 29.171875q0 10.0 5.15625 19.171875q5.171875 9.15625 19.0 15.828125q13.84375 6.65625 39.84375 9.328125q39.65625 4.0 61.8125 24.171875q22.171875 20.15625 22.171875 53.15625q0 19.0 -7.828125 33.0q-7.828125 14.0 -21.0 23.5q-13.171875 9.5 -30.0 14.171875q-16.828125 4.65625 -34.828125 4.65625z" fill="#009682"/><path fill-rule="evenodd" d="m672.31757 205.4462l289.88977 0l0 48.472443l-289.88977 0z" fill-opacity="0.0" fill="#000000"/></g></svg>